<svg width="53" height="54" viewBox="0 0 53 54" fill="none" xmlns="http://www.w3.org/2000/svg">
<circle cx="26.6195" cy="26.999" r="26.163" fill="#E9E6F4"/>
<path d="M16.4211 18.7801C7.16617 27.469 10.5035 30.3751 12.7191 31.4794C14.9347 32.5836 17.8794 31.0725 21.5814 28.0793C25.2553 25.0861 33.8091 19.3031 35.8283 22.1801C37.8476 25.0571 37.8756 30.7528 29.2377 38.2794C20.5998 45.806 18.8049 41.3889 23.0678 37.9598C27.3307 34.5016 26.5454 32.4383 24.5261 32.1477C22.4227 31.8281 20.5998 32.3512 18.6927 35.9256C18.6927 35.9256 15.8041 41.6795 19.5061 43.1615C22.0582 44.1786 29.6584 41.0111 35.2113 35.2281C39.3059 30.9563 42.3068 25.8417 41.0447 19.0125C39.4462 10.062 25.676 10.0911 16.4211 18.7801Z" fill="#ED1C24"/>
</svg>
