<svg width="18" height="18" viewBox="0 0 18 18" fill="none" xmlns="http://www.w3.org/2000/svg">
<path d="M2.33341 12.125C1.72563 12.125 1.14273 11.8836 0.712962 11.4538C0.283191 11.024 0.041748 10.4411 0.041748 9.83333V8.16667C0.041748 7.55888 0.283191 6.97598 0.712962 6.54621C1.14273 6.11644 1.72563 5.875 2.33341 5.875H3.16675C3.33184 5.87716 3.48956 5.9437 3.6063 6.06045C3.72305 6.17719 3.78959 6.33491 3.79175 6.5V10.6667C3.78956 11.0528 3.63521 11.4224 3.36219 11.6954C3.08918 11.9685 2.71951 12.1228 2.33341 12.125ZM2.33341 7.125C2.05715 7.125 1.7922 7.23475 1.59685 7.4301C1.40149 7.62545 1.29175 7.8904 1.29175 8.16667V9.83333C1.29175 10.1096 1.40149 10.3746 1.59685 10.5699C1.7922 10.7653 2.05715 10.875 2.33341 10.875C2.38867 10.875 2.44166 10.8531 2.48073 10.814C2.5198 10.7749 2.54175 10.7219 2.54175 10.6667V7.125H2.33341Z" fill="#210590"/>
<path d="M15.6668 12.125H14.8335C14.6684 12.1228 14.5107 12.0563 14.3939 11.9396C14.2772 11.8228 14.2107 11.6651 14.2085 11.5V6.5C14.2107 6.33491 14.2772 6.17719 14.3939 6.06045C14.5107 5.9437 14.6684 5.87716 14.8335 5.875H15.6668C16.2746 5.875 16.8575 6.11644 17.2873 6.54621C17.7171 6.97598 17.9585 7.55888 17.9585 8.16667V9.83333C17.9585 10.4411 17.7171 11.024 17.2873 11.4538C16.8575 11.8836 16.2746 12.125 15.6668 12.125ZM15.4585 10.875H15.6668C15.9431 10.875 16.208 10.7653 16.4034 10.5699C16.5988 10.3746 16.7085 10.1096 16.7085 9.83333V8.16667C16.7085 7.8904 16.5988 7.62545 16.4034 7.4301C16.208 7.23475 15.9431 7.125 15.6668 7.125H15.4585V10.875Z" fill="#210590"/>
<path d="M14.8334 7.95833C14.6683 7.95618 14.5106 7.88963 14.3939 7.77289C14.2771 7.65614 14.2106 7.49842 14.2084 7.33333C14.2084 5.952 13.6597 4.62724 12.6829 3.65049C11.7062 2.67373 10.3814 2.125 9.00008 2.125C7.61875 2.125 6.29399 2.67373 5.31723 3.65049C4.34048 4.62724 3.79175 5.952 3.79175 7.33333C3.79175 7.49909 3.7259 7.65806 3.60869 7.77528C3.49148 7.89249 3.33251 7.95833 3.16675 7.95833C3.00099 7.95833 2.84202 7.89249 2.72481 7.77528C2.6076 7.65806 2.54175 7.49909 2.54175 7.33333C2.54175 5.62048 3.22218 3.97777 4.43335 2.7666C5.64452 1.55543 7.28723 0.875 9.00008 0.875C10.7129 0.875 12.3556 1.55543 13.5668 2.7666C14.778 3.97777 15.4584 5.62048 15.4584 7.33333C15.4563 7.49842 15.3897 7.65614 15.273 7.77289C15.1562 7.88963 14.9985 7.95618 14.8334 7.95833Z" fill="#210590"/>
<path d="M11.5002 16.2917H9.8335C9.66774 16.2917 9.50876 16.2258 9.39155 16.1086C9.27434 15.9914 9.2085 15.8324 9.2085 15.6667C9.2085 15.5009 9.27434 15.3419 9.39155 15.2247C9.50876 15.1075 9.66774 15.0417 9.8335 15.0417H11.5002C12.2178 15.0395 12.9054 14.7534 13.4128 14.246C13.9203 13.7386 14.2063 13.051 14.2085 12.3333V11.5C14.2085 11.3342 14.2743 11.1753 14.3916 11.0581C14.5088 10.9408 14.6677 10.875 14.8335 10.875C14.9993 10.875 15.1582 10.9408 15.2754 11.0581C15.3926 11.1753 15.4585 11.3342 15.4585 11.5V12.3333C15.4585 13.3831 15.0415 14.39 14.2991 15.1323C13.5568 15.8746 12.55 16.2917 11.5002 16.2917Z" fill="#210590"/>
<path d="M9.00003 12.3334C8.3595 12.3691 7.72979 12.1571 7.24118 11.7414C6.75257 11.3257 6.44247 10.7381 6.37503 10.1001C6.36737 10.018 6.37595 9.93526 6.40028 9.8565C6.42461 9.77774 6.46422 9.70454 6.51684 9.64108C6.56946 9.57763 6.63406 9.52516 6.70696 9.48668C6.77986 9.44819 6.85962 9.42444 6.9417 9.41678C7.02377 9.40912 7.10655 9.4177 7.18531 9.44203C7.26407 9.46636 7.33727 9.50597 7.40072 9.55859C7.46418 9.61121 7.51665 9.67581 7.55513 9.74871C7.59362 9.82161 7.61737 9.90137 7.62503 9.98345C7.66682 10.3093 7.83358 10.6062 8.09013 10.8114C8.34668 11.0167 8.67293 11.1142 9.00003 11.0834C9.32713 11.1142 9.65338 11.0167 9.90993 10.8114C10.1665 10.6062 10.3332 10.3093 10.375 9.98345C10.3827 9.90137 10.4064 9.82161 10.4449 9.74871C10.4834 9.67581 10.5359 9.61121 10.5993 9.55859C10.6628 9.50597 10.736 9.46636 10.8147 9.44203C10.8935 9.4177 10.9763 9.40912 11.0584 9.41678C11.1404 9.42444 11.2202 9.44819 11.2931 9.48668C11.366 9.52516 11.4306 9.57763 11.4832 9.64108C11.5358 9.70454 11.5754 9.77774 11.5998 9.8565C11.6241 9.93526 11.6327 10.018 11.625 10.1001C11.5576 10.7381 11.2475 11.3257 10.7589 11.7414C10.2703 12.1571 9.64056 12.3691 9.00003 12.3334Z" fill="#210590"/>
<path d="M9.00016 17.1237H8.16683C7.78006 17.1237 7.40912 16.9701 7.13563 16.6966C6.86214 16.4231 6.7085 16.0521 6.7085 15.6654C6.7085 15.2786 6.86214 14.9077 7.13563 14.6342C7.40912 14.3607 7.78006 14.207 8.16683 14.207H9.00016C9.38694 14.207 9.75787 14.3607 10.0314 14.6342C10.3049 14.9077 10.4585 15.2786 10.4585 15.6654C10.4585 16.0521 10.3049 16.4231 10.0314 16.6966C9.75787 16.9701 9.38694 17.1237 9.00016 17.1237ZM8.16683 15.457C8.11158 15.457 8.05859 15.479 8.01952 15.5181C7.98045 15.5571 7.9585 15.6101 7.9585 15.6654C7.9585 15.7206 7.98045 15.7736 8.01952 15.8127C8.05859 15.8517 8.11158 15.8737 8.16683 15.8737H9.00016C9.05542 15.8737 9.10841 15.8517 9.14748 15.8127C9.18655 15.7736 9.2085 15.7206 9.2085 15.6654C9.2085 15.6101 9.18655 15.5571 9.14748 15.5181C9.10841 15.479 9.05542 15.457 9.00016 15.457H8.16683Z" fill="#210590"/>
<path d="M7.33333 7.33464C7.79357 7.33464 8.16667 6.96154 8.16667 6.5013C8.16667 6.04106 7.79357 5.66797 7.33333 5.66797C6.8731 5.66797 6.5 6.04106 6.5 6.5013C6.5 6.96154 6.8731 7.33464 7.33333 7.33464Z" fill="#210590"/>
<path d="M10.6668 7.33464C11.1271 7.33464 11.5002 6.96154 11.5002 6.5013C11.5002 6.04106 11.1271 5.66797 10.6668 5.66797C10.2066 5.66797 9.8335 6.04106 9.8335 6.5013C9.8335 6.96154 10.2066 7.33464 10.6668 7.33464Z" fill="#210590"/>
</svg>
