<svg width="16" height="16" viewBox="0 0 16 16" fill="none" xmlns="http://www.w3.org/2000/svg">
<path fill-rule="evenodd" clip-rule="evenodd" d="M0.36604 15.6337C0.527926 15.7956 0.766794 15.8533 0.984715 15.7831L4.11061 14.7765C5.25619 15.4353 6.5846 15.8125 7.99977 15.8125C12.3145 15.8125 15.8123 12.3147 15.8123 7.99999C15.8123 3.68527 12.3145 0.187487 7.99977 0.187487C3.68505 0.187487 0.187272 3.68527 0.187272 7.99999C0.187272 9.41516 0.564447 10.7436 1.2233 11.8891L0.216654 15.015C0.146476 15.233 0.204153 15.4718 0.36604 15.6337ZM7.99977 14.5918C6.71735 14.5918 5.52233 14.2258 4.51059 13.5931C4.35803 13.4977 4.17116 13.4745 3.99991 13.5297L1.74342 14.2563L2.47008 11.9999C2.52524 11.8286 2.50202 11.6417 2.40663 11.4892C1.77401 10.4774 1.40797 9.2824 1.40797 7.99999C1.40797 4.35944 4.35923 1.40819 7.99977 1.40819C11.6403 1.40819 14.5916 4.35944 14.5916 7.99999C14.5916 11.6405 11.6403 14.5918 7.99977 14.5918Z" fill="#210590"/>
<path d="M8.76294 7.99878C8.76294 8.42014 8.42136 8.76172 8 8.76172C7.57864 8.76172 7.23706 8.42014 7.23706 7.99878C7.23706 7.57742 7.57864 7.23584 8 7.23584C8.42136 7.23584 8.76294 7.57742 8.76294 7.99878Z" fill="#210590"/>
<path d="M11.8147 7.99878C11.8147 8.42014 11.4731 8.76172 11.0518 8.76172C10.6304 8.76172 10.2888 8.42014 10.2888 7.99878C10.2888 7.57742 10.6304 7.23584 11.0518 7.23584C11.4731 7.23584 11.8147 7.57742 11.8147 7.99878Z" fill="#210590"/>
<path d="M5.71118 7.99878C5.71118 8.42014 5.3696 8.76172 4.94824 8.76172C4.52689 8.76172 4.1853 8.42014 4.1853 7.99878C4.1853 7.57742 4.52689 7.23584 4.94824 7.23584C5.3696 7.23584 5.71118 7.57742 5.71118 7.99878Z" fill="#210590"/>
</svg>
