<svg width="50" height="50" viewBox="0 0 50 50" fill="none" xmlns="http://www.w3.org/2000/svg">
<circle cx="25" cy="25" r="25" fill="#E9E6F4"/>
<g clip-path="url(#clip0_12164_2473)">
<path d="M29.9695 10H19.9877C18.2262 10.002 16.7987 11.4295 16.7969 13.191V36.8091C16.7987 38.5707 18.2262 39.9982 19.9877 39.9999H29.9695C31.7311 39.9982 33.1586 38.5707 33.1606 36.8091V13.191C33.1586 11.4295 31.7311 10.002 29.9695 10ZM24.9788 37.2728C24.2254 37.2728 23.615 36.6623 23.615 35.909C23.615 35.1559 24.2254 34.5455 24.9788 34.5455C25.7318 34.5455 26.3423 35.1559 26.3423 35.909C26.3423 36.6623 25.7318 37.2728 24.9788 37.2728ZM27.0242 14.0909H22.9333C22.5568 14.0909 22.2514 13.7855 22.2514 13.409C22.2514 13.0325 22.5568 12.7274 22.9333 12.7274H27.0242C27.4007 12.7274 27.7059 13.0325 27.7059 13.409C27.7059 13.7855 27.4007 14.0909 27.0242 14.0909Z" fill="#210590"/>
</g>
<defs>
<clipPath id="clip0_12164_2473">
<rect width="30" height="30" fill="white" transform="translate(10 10)"/>
</clipPath>
</defs>
</svg>
