<svg width="50" height="50" viewBox="0 0 50 50" fill="none" xmlns="http://www.w3.org/2000/svg">
<circle cx="25" cy="25" r="25" fill="#E7F8F0"/>
<path d="M16.17 28.8359C15.925 28.9609 15.825 29.2609 15.95 29.5059C16.915 31.4459 18.51 33.0509 20.44 34.0259C20.515 34.0659 20.59 34.0809 20.665 34.0809C20.85 34.0809 21.025 33.9809 21.115 33.8059C21.24 33.5609 21.14 33.2609 20.895 33.1359C19.15 32.2559 17.715 30.8059 16.845 29.0609C16.72 28.8159 16.42 28.7159 16.17 28.8359Z" fill="#12B76A"/>
<path d="M29.59 25.0002C29.59 22.4702 27.53 20.4102 25 20.4102C22.47 20.4102 20.41 22.4702 20.41 25.0002C20.41 27.5352 22.47 29.5952 25 29.5952C27.53 29.5952 29.59 27.5352 29.59 25.0002Z" fill="#12B76A"/>
<path d="M29.28 34.1042C29.355 34.1042 29.435 34.0892 29.505 34.0542C31.46 33.0792 33.075 31.4642 34.055 29.5042C34.175 29.2592 34.075 28.9592 33.83 28.8342C33.58 28.7092 33.28 28.8142 33.155 29.0592C32.28 30.8242 30.825 32.2792 29.06 33.1592C28.81 33.2792 28.71 33.5792 28.835 33.8292C28.92 34.0042 29.1 34.1042 29.28 34.1042Z" fill="#12B76A"/>
<path d="M27.895 15.4C27.895 13.8 26.595 12.5 25 12.5C23.405 12.5 22.105 13.8 22.105 15.4C22.105 16.995 23.405 18.295 25 18.295C26.595 18.295 27.895 16.995 27.895 15.4Z" fill="#12B76A"/>
<path d="M34.605 22.1055C33.005 22.1055 31.705 23.4055 31.705 25.0005C31.705 26.6005 33.005 27.9005 34.605 27.9005C36.2 27.9005 37.5 26.6005 37.5 25.0005C37.5 23.4055 36.2 22.1055 34.605 22.1055Z" fill="#12B76A"/>
<path d="M22.105 34.6031C22.105 36.1981 23.405 37.4981 25 37.4981C26.595 37.4981 27.895 36.1981 27.895 34.6031C27.895 33.0031 26.595 31.7031 25 31.7031C23.405 31.7031 22.105 33.0031 22.105 34.6031Z" fill="#12B76A"/>
<path d="M33.605 21.2203C33.68 21.2203 33.755 21.2003 33.83 21.1653C34.075 21.0453 34.175 20.7453 34.055 20.4953C33.075 18.5403 31.46 16.9203 29.505 15.9453C29.26 15.8253 28.96 15.9253 28.835 16.1703C28.71 16.4203 28.81 16.7203 29.06 16.8453C30.82 17.7203 32.28 19.1753 33.16 20.9403C33.245 21.1153 33.42 21.2203 33.605 21.2203Z" fill="#12B76A"/>
<path d="M21.165 16.1685C21.04 15.9235 20.745 15.8235 20.495 15.9485C18.54 16.9235 16.925 18.5385 15.95 20.4935C15.825 20.7435 15.925 21.0435 16.17 21.1635C16.245 21.2035 16.32 21.2185 16.395 21.2185C16.58 21.2185 16.755 21.1185 16.84 20.9385C17.72 19.1785 19.175 17.7185 20.94 16.8385C21.185 16.7185 21.29 16.4185 21.165 16.1685Z" fill="#12B76A"/>
<path d="M12.5 25.0005C12.5 26.6005 13.8 27.9005 15.395 27.9005C16.995 27.9005 18.295 26.6005 18.295 25.0005C18.295 23.4055 16.995 22.1055 15.395 22.1055C13.8 22.1055 12.5 23.4055 12.5 25.0005Z" fill="#12B76A"/>
</svg>
