<svg width="50" height="50" viewBox="0 0 50 50" fill="none" xmlns="http://www.w3.org/2000/svg">
<circle cx="25" cy="25" r="25" fill="#E7F8F0"/>
<g clip-path="url(#clip0_12164_5893)">
<mask id="mask0_12164_5893" style="mask-type:luminance" maskUnits="userSpaceOnUse" x="10" y="10" width="30" height="30">
<path d="M10 10H40V40H10V10Z" fill="white"/>
</mask>
<g mask="url(#mask0_12164_5893)">
<path d="M15 24.3734V29.3734C15 30.4109 15.8375 31.2484 16.875 31.2484C17.9125 31.2484 18.75 30.4109 18.75 29.3734V24.3734C18.75 23.3359 17.9125 22.4984 16.875 22.4984C15.8375 22.4984 15 23.3359 15 24.3734ZM22.5 24.3734V29.3734C22.5 30.4109 23.3375 31.2484 24.375 31.2484C25.4125 31.2484 26.25 30.4109 26.25 29.3734V24.3734C26.25 23.3359 25.4125 22.4984 24.375 22.4984C23.3375 22.4984 22.5 23.3359 22.5 24.3734ZM14.375 37.4984H34.375C35.4125 37.4984 36.25 36.6609 36.25 35.6234C36.25 34.5859 35.4125 33.7484 34.375 33.7484H14.375C13.3375 33.7484 12.5 34.5859 12.5 35.6234C12.5 36.6609 13.3375 37.4984 14.375 37.4984ZM30 24.3734V29.3734C30 30.4109 30.8375 31.2484 31.875 31.2484C32.9125 31.2484 33.75 30.4109 33.75 29.3734V24.3734C33.75 23.3359 32.9125 22.4984 31.875 22.4984C30.8375 22.4984 30 23.3359 30 24.3734ZM23.2125 11.8609L13.3375 17.0609C12.825 17.3234 12.5 17.8609 12.5 18.4359C12.5 19.2984 13.2 19.9984 14.0625 19.9984H34.7C35.55 19.9984 36.25 19.2984 36.25 18.4359C36.25 17.8609 35.925 17.3234 35.4125 17.0609L25.5375 11.8609C24.8125 11.4734 23.9375 11.4734 23.2125 11.8609Z" fill="#12B76A"/>
</g>
</g>
<defs>
<clipPath id="clip0_12164_5893">
<rect width="30" height="30" fill="white" transform="translate(10 10)"/>
</clipPath>
</defs>
</svg>
