<svg width="50" height="50" viewBox="0 0 50 50" fill="none" xmlns="http://www.w3.org/2000/svg">
<circle cx="25" cy="25" r="25" fill="#E7F8F0"/>
<g clip-path="url(#clip0_12164_2657)">
<path d="M21.9971 11.3871L15.3505 20.2668C14.874 20.9035 15.3283 21.811 16.1237 21.811H23.7359V11.9936C23.7361 11.014 22.5427 10.6581 21.9971 11.3871Z" fill="#12B76A"/>
<path d="M18.0798 36.3602C18.0798 38.9184 20.1612 40.9999 22.7201 40.9999C23.356 40.9999 23.7361 40.5307 23.7361 40.0335V23.7422H18.0798V36.3602Z" fill="#12B76A"/>
<path d="M32.0059 15.6397C32.0059 13.0812 29.9246 11 27.3655 11C26.7299 11 26.3497 11.469 26.3497 11.9661V28.2575H32.0059V15.6397Z" fill="#12B76A"/>
<path d="M33.9621 30.1875H26.3497V40.0045C26.3497 40.982 27.5417 41.3418 28.0885 40.6115L34.7353 31.7318C35.2118 31.0952 34.7575 30.1875 33.9621 30.1875Z" fill="#12B76A"/>
</g>
<defs>
<clipPath id="clip0_12164_2657">
<rect width="30" height="30" fill="white" transform="translate(10 11)"/>
</clipPath>
</defs>
</svg>
