<svg width="50" height="50" viewBox="0 0 50 50" fill="none" xmlns="http://www.w3.org/2000/svg">
<circle cx="25" cy="25" r="25" fill="#FEF4E6"/>
<g clip-path="url(#clip0_12164_2451)">
<path d="M34.375 27.1836V31.2617C34.375 32.743 33.5031 34.0648 32.1531 34.6836C30.5125 35.4336 28.0281 36.2492 25 36.2492C21.9719 36.2492 19.4875 35.4336 17.8375 34.6836C16.4969 34.0648 15.625 32.743 15.625 31.2617V27.1836L22.2906 30.2305C23.1437 30.6242 24.0625 30.8211 25 30.8211C25.9375 30.8211 26.8562 30.6242 27.7094 30.2305L34.375 27.1836Z" fill="#F79009"/>
<path d="M38.125 25.4688V31.5625C38.125 32.0781 37.7031 32.5 37.1875 32.5C36.6719 32.5 36.25 32.0781 36.25 31.5625V26.3313L38.125 25.4688Z" fill="#F79009"/>
<path d="M23.0669 28.528C23.6809 28.8084 24.34 28.949 25 28.949C25.66 28.949 26.3181 28.8093 26.9331 28.528L38.9059 23.0549C39.5809 22.7465 40 22.093 40 21.3496C40 20.6062 39.5809 19.9518 38.9059 19.6434L26.9331 14.1712C25.7041 13.6096 24.2969 13.6096 23.0678 14.1712L11.0941 19.6424C10.4191 19.9518 10 20.6052 10 21.3487C10 22.0921 10.4191 22.7455 11.0941 23.0549L23.0669 28.528Z" fill="#F79009"/>
</g>
<defs>
<clipPath id="clip0_12164_2451">
<rect width="30" height="30" fill="white" transform="translate(10 10)"/>
</clipPath>
</defs>
</svg>
