<svg width="50" height="50" viewBox="0 0 50 50" fill="none" xmlns="http://www.w3.org/2000/svg">
<circle cx="25" cy="25" r="25" fill="#FEF4E6"/>
<path d="M32.5 17.5H31.25V12.5C31.25 11.8097 30.6903 11.25 30 11.25C29.3097 11.25 28.75 11.8097 28.75 12.5V17.5H21.25V12.5C21.25 11.8097 20.6902 11.25 20 11.25C19.3098 11.25 18.75 11.8097 18.75 12.5V17.5H17.5C16.1193 17.5 15 18.6193 15 20V22.1575C15 27.2854 18.7294 31.7752 23.75 32.4105V37.5001C23.75 38.1904 24.3097 38.7501 25 38.7501C25.6903 38.7501 26.25 38.1904 26.25 37.5001V32.4136C31.1816 31.7974 35 27.5986 35 22.5001V20.0001C35 18.6194 33.8808 17.5 32.5 17.5ZM28.3305 25.5085L24.4055 29.8234C24.0105 30.2576 23.3671 29.828 23.4996 29.2185L24.2403 25.8135C24.325 25.424 24.0282 25.0556 23.6296 25.0556H22.0464C21.5421 25.0556 21.308 24.3364 21.6885 23.9561L25.4903 20.1566C25.8983 19.749 26.5181 20.1986 26.3734 20.7973L25.6821 23.6571C25.5871 24.0504 25.8851 24.4289 26.2896 24.4289H27.9535C28.4451 24.4289 28.6859 25.1179 28.3305 25.5085Z" fill="#F79009"/>
</svg>
