<svg width="50" height="50" viewBox="0 0 50 50" fill="none" xmlns="http://www.w3.org/2000/svg">
<circle cx="25" cy="25" r="25" fill="#E9E6F4"/>
<path d="M40 19.5508V17.9688C40 16.1566 38.5309 14.6875 36.7188 14.6875H13.2812C11.4691 14.6875 10 16.1566 10 17.9688V19.5508C10 19.7126 10.1312 19.8438 10.293 19.8438H39.707C39.8688 19.8438 40 19.7126 40 19.5508Z" fill="#210590"/>
<path d="M10 22.0117V32.0312C10 33.8434 11.4691 35.3125 13.2812 35.3125H36.7188C38.5309 35.3125 40 33.8434 40 32.0312V22.0117C40 21.8499 39.8688 21.7188 39.707 21.7188H10.293C10.1312 21.7188 10 21.8499 10 22.0117ZM17.5 29.6875C17.5 30.2052 17.0802 30.625 16.5625 30.625H15.625C15.1073 30.625 14.6875 30.2052 14.6875 29.6875V28.75C14.6875 28.2323 15.1073 27.8125 15.625 27.8125H16.5625C17.0802 27.8125 17.5 28.2323 17.5 28.75V29.6875Z" fill="#210590"/>
</svg>
