<svg width="50" height="50" viewBox="0 0 50 50" fill="none" xmlns="http://www.w3.org/2000/svg">
<circle cx="25" cy="25" r="25" fill="#F1E1FE"/>
<path d="M36.25 26.25H18.75V13.75C18.75 13 18.25 12.5 17.5 12.5C16.75 12.5 16.25 13.125 16.25 13.75V26.25H13.75C13 26.25 12.5 26.75 12.5 27.5V35C12.5 35.75 13 36.25 13.75 36.25H15V37.5H17.5V36.25H32.5V37.5H35V36.25H36.25C37 36.25 37.5 35.75 37.5 35V27.5C37.5 26.75 36.875 26.25 36.25 26.25ZM28.75 32.5C28.125 32.5 27.5 32 27.5 31.25C27.5 30.625 28 30 28.75 30C29.375 30 30 30.5 30 31.25C30 31.875 29.375 32.5 28.75 32.5ZM33.75 32.375C33.125 32.375 32.5 31.875 32.5 31.125C32.5 30.5 33 29.875 33.75 29.875C34.375 29.875 35 30.375 35 31.125C35 31.875 34.375 32.375 33.75 32.375Z" fill="#530590"/>
</svg>
