<svg width="50" height="50" viewBox="0 0 50 50" fill="none" xmlns="http://www.w3.org/2000/svg">
<circle cx="25" cy="25" r="25" fill="#FEF4E6"/>
<g clip-path="url(#clip0_12164_2347)">
<path d="M25.9082 25.8789C28.3311 25.8789 30.3027 23.9075 30.3027 21.4844C30.3027 19.0615 28.3313 17.0898 25.9082 17.0898C23.4853 17.0898 21.5137 19.0613 21.5137 21.4844C21.5137 23.9073 23.4851 25.8789 25.9082 25.8789ZM25.9082 20.6055C26.3935 20.6055 26.7871 20.9989 26.7871 21.4844C26.7871 21.9697 26.3936 22.3633 25.9082 22.3633C25.4229 22.3633 25.0293 21.9698 25.0293 21.4844C25.0293 20.999 25.4227 20.6055 25.9082 20.6055Z" fill="#F79009"/>
<path d="M34.6973 10C32.2744 10 30.3027 11.9714 30.3027 14.3945C30.3027 16.8174 32.2742 18.7891 34.6973 18.7891C37.1202 18.7891 39.0918 16.8176 39.0918 14.3945C39.0918 11.9716 37.1204 10 34.6973 10ZM34.6973 15.2734C34.2119 15.2734 33.8184 14.8799 33.8184 14.3945C33.8184 13.9092 34.2118 13.5156 34.6973 13.5156C35.1826 13.5156 35.5762 13.909 35.5762 14.3945C35.5762 14.8799 35.1827 15.2734 34.6973 15.2734Z" fill="#F79009"/>
<path d="M19.7559 17.0312C21.6975 17.0312 23.2715 15.4573 23.2715 13.5156C23.2715 11.574 21.6975 10 19.7559 10C17.8142 10 16.2402 11.574 16.2402 13.5156C16.2402 15.4573 17.8142 17.0312 19.7559 17.0312Z" fill="#F79009"/>
<path d="M16.4392 39.7414C16.7825 40.0847 17.3387 40.0848 17.682 39.7414L20.9401 36.4833H27.8887C29.4808 36.4833 31.0407 35.8801 32.2305 34.6903L38.4003 28.5205C38.7476 28.1729 38.7415 27.6108 38.3929 27.2702C37.5528 26.4499 36.2091 26.4579 35.3788 27.2881L30.9825 31.6845C30.1582 32.5088 29.0516 32.9677 27.8887 32.9677H20.5762C20.0841 32.9677 19.6973 32.5811 19.6973 32.0888C19.6973 31.5966 20.084 31.2099 20.5762 31.2099H26.7286C27.6993 31.2099 28.4864 30.423 28.4864 29.4521C28.4864 28.4813 27.6995 27.6943 26.7286 27.6943H18.5196C18.5193 27.6943 18.5191 27.6943 18.5188 27.6944C18.5185 27.6945 18.5183 27.6945 18.518 27.6945C18.5178 27.6945 18.5177 27.6945 18.5176 27.6944C18.5175 27.6943 18.5173 27.6943 18.5171 27.6943C17.3434 27.6943 16.2395 28.1514 15.4092 28.9818L11.1657 33.2252C10.8224 33.5685 10.8223 34.1247 11.1657 34.4681L16.4392 39.7414Z" fill="#F79009"/>
</g>
<defs>
<clipPath id="clip0_12164_2347">
<rect width="30" height="30" fill="white" transform="translate(10 10)"/>
</clipPath>
</defs>
</svg>
