<svg width="50" height="50" viewBox="0 0 50 50" fill="none" xmlns="http://www.w3.org/2000/svg">
<circle cx="25" cy="25" r="25" fill="#F1E1FE"/>
<g clip-path="url(#clip0_12164_5347)">
<path d="M13.125 23.75V20C13.47 20 13.75 19.72 13.75 19.375C13.75 19.03 13.47 18.75 13.125 18.75C11.4013 18.75 10 20.1525 10 21.875V23.125C10 24.1588 10.8412 25 11.875 25H13.125C13.47 25 13.75 24.72 13.75 24.375C13.75 24.03 13.47 23.75 13.125 23.75Z" fill="#530590"/>
<path d="M36.875 18.75C36.53 18.75 36.25 19.03 36.25 19.375C36.25 19.72 36.53 20 36.875 20V23.75C36.53 23.75 36.25 24.0301 36.25 24.3751C36.25 24.7201 36.53 25 36.875 25H38.125C39.1588 25 40 24.1588 40 23.125V21.875C40 20.1525 38.5987 18.75 36.875 18.75Z" fill="#530590"/>
<path d="M20.625 36.25C20.28 36.25 20 36.53 20 36.875H16.25C16.25 36.53 15.97 36.25 15.625 36.25C15.28 36.25 14.9999 36.53 14.9999 36.875V38.125C14.9999 39.1588 15.8412 40 16.8749 40H19.375C20.4088 40 21.25 39.1588 21.25 38.125V36.875C21.25 36.53 20.97 36.25 20.625 36.25Z" fill="#530590"/>
<path d="M34.375 36.25C34.03 36.25 33.75 36.53 33.75 36.875H30C30 36.53 29.72 36.25 29.375 36.25C29.03 36.25 28.75 36.53 28.75 36.875V38.125C28.75 39.1588 29.5912 40 30.625 40H33.125C34.1588 40 35 39.1588 35 38.125V36.875C35 36.53 34.72 36.25 34.375 36.25Z" fill="#530590"/>
<path d="M34.375 10H15.625C13.9012 10 12.5 11.4025 12.5 13.125V34.375C12.5 36.0975 13.9013 37.5 15.625 37.5H34.375C36.0988 37.5 37.5 36.0975 37.5 34.375V13.125C37.5 11.4025 36.0988 10 34.375 10ZM18.125 12.5H31.875C32.9088 12.5 33.75 13.3412 33.75 14.375C33.75 15.4088 32.9088 16.25 31.875 16.25H18.125C17.0912 16.25 16.25 15.4088 16.25 14.375C16.25 13.3412 17.0912 12.5 18.125 12.5ZM18.125 33.75C17.0912 33.75 16.25 32.9088 16.25 31.875C16.25 30.8412 17.0912 30 18.125 30C19.1588 30 20 30.8412 20 31.875C20 32.9088 19.1587 33.75 18.125 33.75ZM31.875 33.75C30.8412 33.75 30 32.9088 30 31.875C30 30.8412 30.8412 30 31.875 30C32.9087 30 33.75 30.8412 33.75 31.875C33.75 32.9088 32.9087 33.75 31.875 33.75ZM35 25.625C35 26.6588 34.1588 27.5 33.125 27.5H16.875C15.8412 27.5 15 26.6588 15 25.625V19.375C15 18.3412 15.8412 17.5 16.875 17.5H33.1249C34.1587 17.5 34.9999 18.3412 34.9999 19.375V25.625H35Z" fill="#530590"/>
</g>
<defs>
<clipPath id="clip0_12164_5347">
<rect width="30" height="30" fill="white" transform="translate(10 10)"/>
</clipPath>
</defs>
</svg>
