<svg width="50" height="50" viewBox="0 0 50 50" fill="none" xmlns="http://www.w3.org/2000/svg">
<circle cx="25" cy="25" r="25" fill="#F1E1FE"/>
<path d="M37.5344 21.25C37.6937 21.2262 37.8398 21.1477 37.9476 21.028C38.0554 20.9082 38.1181 20.7547 38.125 20.5938V16.975C38.125 16.7977 38.0901 16.6222 38.0223 16.4584C37.9544 16.2946 37.855 16.1458 37.7296 16.0204C37.6043 15.895 37.4555 15.7956 37.2917 15.7278C37.1279 15.6599 36.9523 15.625 36.775 15.625H13.225C13.0478 15.625 12.8722 15.6599 12.7084 15.7278C12.5446 15.7956 12.3958 15.895 12.2704 16.0204C12.1451 16.1458 12.0456 16.2946 11.9778 16.4584C11.91 16.6222 11.875 16.7977 11.875 16.975V20.5938C11.8732 20.7612 11.932 20.9237 12.0405 21.0512C12.1491 21.1787 12.3001 21.2626 12.4657 21.2875C13.3665 21.4075 14.1932 21.8505 14.7919 22.5342C15.3906 23.218 15.7207 24.0959 15.7207 25.0047C15.7207 25.9135 15.3906 26.7914 14.7919 27.4751C14.1932 28.1589 13.3665 28.6019 12.4657 28.7219C12.3017 28.7465 12.1519 28.8291 12.0436 28.9547C11.9352 29.0802 11.8754 29.2404 11.875 29.4063V33.025C11.875 33.383 12.0173 33.7264 12.2704 33.9796C12.5236 34.2328 12.867 34.375 13.225 34.375H36.775C37.1331 34.375 37.4765 34.2328 37.7296 33.9796C37.9828 33.7264 38.125 33.383 38.125 33.025V29.4063C38.1269 29.2388 38.0681 29.0763 37.9596 28.9488C37.851 28.8213 37.7 28.7374 37.5344 28.7125C36.6335 28.5925 35.8069 28.1495 35.2082 27.4658C34.6095 26.782 34.2794 25.9041 34.2794 24.9953C34.2794 24.0865 34.6095 23.2086 35.2082 22.5249C35.8069 21.8411 36.6335 21.3981 37.5344 21.2781V21.25ZM25 29.6313C24.8146 29.6313 24.6334 29.5763 24.4792 29.4733C24.325 29.3702 24.2049 29.2238 24.1339 29.0525C24.0629 28.8812 24.0444 28.6927 24.0806 28.5109C24.1167 28.329 24.206 28.1619 24.3371 28.0308C24.4682 27.8997 24.6353 27.8104 24.8171 27.7743C24.999 27.7381 25.1875 27.7567 25.3588 27.8276C25.5301 27.8986 25.6765 28.0187 25.7795 28.1729C25.8826 28.3271 25.9375 28.5083 25.9375 28.6938C25.9375 28.9424 25.8388 29.1808 25.663 29.3567C25.4871 29.5325 25.2487 29.6313 25 29.6313ZM25 26.0031C24.8146 26.0031 24.6334 25.9481 24.4792 25.8451C24.325 25.7421 24.2049 25.5957 24.1339 25.4244C24.0629 25.2531 24.0444 25.0646 24.0806 24.8827C24.1167 24.7009 24.206 24.5338 24.3371 24.4027C24.4682 24.2716 24.6353 24.1823 24.8171 24.1461C24.999 24.11 25.1875 24.1285 25.3588 24.1995C25.5301 24.2704 25.6765 24.3906 25.7795 24.5448C25.8826 24.6989 25.9375 24.8802 25.9375 25.0656C25.9351 25.3126 25.8352 25.5487 25.6597 25.7225C25.4841 25.8963 25.2471 25.9938 25 25.9937V26.0031ZM25 22.2531C24.8146 22.2531 24.6334 22.1981 24.4792 22.0951C24.325 21.9921 24.2049 21.8457 24.1339 21.6744C24.0629 21.5031 24.0444 21.3146 24.0806 21.1327C24.1167 20.9509 24.206 20.7838 24.3371 20.6527C24.4682 20.5216 24.6353 20.4323 24.8171 20.3961C24.999 20.36 25.1875 20.3785 25.3588 20.4495C25.5301 20.5204 25.6765 20.6406 25.7795 20.7948C25.8826 20.9489 25.9375 21.1302 25.9375 21.3156C25.9351 21.5626 25.8352 21.7987 25.6597 21.9725C25.4841 22.1463 25.2471 22.2438 25 22.2438V22.2531Z" fill="#530590"/>
<path d="M36.775 35.3125H13.225C12.6183 35.3125 12.0365 35.0715 11.6075 34.6425C11.1785 34.2135 10.9375 33.6317 10.9375 33.025V29.4063C10.9417 29.0205 11.0824 28.6488 11.3347 28.357C11.587 28.0653 11.9346 27.8723 12.3156 27.8125C12.9828 27.7067 13.5897 27.3643 14.0252 26.8479C14.4607 26.3314 14.6958 25.6755 14.6875 25C14.6955 24.3231 14.4591 23.666 14.0217 23.1494C13.5843 22.6328 12.9752 22.2912 12.3063 22.1875C11.9261 22.1274 11.5797 21.9342 11.329 21.6422C11.0782 21.3502 10.9395 20.9786 10.9375 20.5938V16.975C10.9375 16.3683 11.1785 15.7865 11.6075 15.3575C12.0365 14.9285 12.6183 14.6875 13.225 14.6875H36.775C37.3817 14.6875 37.9635 14.9285 38.3925 15.3575C38.8215 15.7865 39.0625 16.3683 39.0625 16.975V20.5938C39.0602 20.98 38.9201 21.3527 38.6675 21.6449C38.4148 21.937 38.0662 22.1295 37.6844 22.1875C37.0172 22.2933 36.4103 22.6357 35.9748 23.1521C35.5393 23.6686 35.3042 24.3245 35.3125 25C35.3045 25.6769 35.5409 26.334 35.9783 26.8506C36.4157 27.3672 37.0248 27.7088 37.6938 27.8125C38.0731 27.8743 38.4184 28.0681 38.6688 28.3597C38.9193 28.6513 39.0587 29.0219 39.0625 29.4063V33.025C39.0625 33.6317 38.8215 34.2135 38.3925 34.6425C37.9635 35.0715 37.3817 35.3125 36.775 35.3125ZM12.8125 29.6125V33.0344C12.8125 33.1438 12.856 33.2487 12.9333 33.3261C13.0107 33.4034 13.1156 33.4469 13.225 33.4469H36.775C36.8844 33.4469 36.9893 33.4034 37.0667 33.3261C37.144 33.2487 37.1875 33.1438 37.1875 33.0344V29.6125C36.1122 29.4117 35.141 28.8411 34.4421 27.9995C33.7432 27.158 33.3607 26.0986 33.3607 25.0047C33.3607 23.9108 33.7432 22.8513 34.4421 22.0098C35.141 21.1683 36.1122 20.5977 37.1875 20.3969V16.975C37.1875 16.8656 37.144 16.7607 37.0667 16.6833C36.9893 16.606 36.8844 16.5625 36.775 16.5625H13.225C13.1156 16.5625 13.0107 16.606 12.9333 16.6833C12.856 16.7607 12.8125 16.8656 12.8125 16.975V20.3969C13.8878 20.5977 14.859 21.1683 15.5579 22.0098C16.2568 22.8513 16.6393 23.9108 16.6393 25.0047C16.6393 26.0986 16.2568 27.158 15.5579 27.9995C14.859 28.8411 13.8878 29.4117 12.8125 29.6125Z" fill="#530590"/>
</svg>
