<svg width="50" height="50" viewBox="0 0 50 50" fill="none" xmlns="http://www.w3.org/2000/svg">
<circle cx="25" cy="25" r="25" fill="#F4E5FB"/>
<path d="M38.9805 13.9297H11.0195C10.4564 13.9297 10 14.3861 10 14.9492V30.1467C10 30.7097 10.4564 31.1662 11.0195 31.1662H38.9805C39.5436 31.1662 40 30.7097 40 30.1467V14.9492C40 14.3861 39.5436 13.9297 38.9805 13.9297Z" fill="#8E20C1"/>
<path d="M30.8256 34.3006H27.3645V32.9336H22.6355V34.3006H19.1744C18.686 34.3006 18.29 34.6966 18.29 35.185C18.29 35.6734 18.686 36.0694 19.1744 36.0694H30.8256C31.314 36.0694 31.7099 35.6734 31.7099 35.185C31.7099 34.6966 31.314 34.3006 30.8256 34.3006Z" fill="#8E20C1"/>
</svg>
