<svg width="50" height="50" viewBox="0 0 50 50" fill="none" xmlns="http://www.w3.org/2000/svg">
<circle cx="25" cy="25" r="25" fill="#E6F7FF"/>
<path d="M20.7854 19.871C20.7854 19.5091 20.7854 18.4079 18.8989 15.4304C18.0129 14.032 17.1403 12.8929 17.1035 12.8451L16.4066 11.9375L15.7096 12.8451C15.6728 12.8929 14.8002 14.0321 13.9142 15.4304C12.0277 18.4079 12.0277 19.5091 12.0277 19.871C12.0277 22.2855 13.992 24.2498 16.4066 24.2498C18.8211 24.2498 20.7854 22.2855 20.7854 19.871Z" fill="#009BDD"/>
<path d="M36.5632 12.8057C35.913 11.7796 35.2719 10.9428 35.2449 10.9076L34.5479 10L33.8509 10.9076C33.824 10.9428 33.1829 11.7796 32.5327 12.8057C31.9277 13.7606 31.1234 15.1476 31.1234 16.1637C31.1234 18.0521 32.6597 19.5883 34.5479 19.5883C36.4362 19.5883 37.9724 18.052 37.9724 16.1637C37.9724 15.1475 37.1682 13.7606 36.5632 12.8057Z" fill="#009BDD"/>
<path d="M27.1004 18.8725L26.4034 17.9648L25.7065 18.8725C25.635 18.9656 23.936 21.1833 22.2083 23.9102C19.8266 27.6691 18.619 30.4628 18.619 32.2137C18.619 36.5061 22.1111 39.9982 26.4035 39.9982C30.6959 39.9982 34.1879 36.5061 34.1879 32.2137C34.1879 30.4628 32.9803 27.6691 30.5987 23.9102C28.8709 21.1833 27.172 18.9656 27.1004 18.8725Z" fill="#009BDD"/>
</svg>
